<?xml version="1.0" encoding="UTF-8"?>
<svg width="20px" height="19px" viewBox="0 0 20 19" version="1.1" xmlns="http://www.w3.org/2000/svg" xmlns:xlink="http://www.w3.org/1999/xlink">
    <!-- Generator: Sketch 53.2 (72643) - https://sketchapp.com -->
    <title>noun_Paw_1959439</title>
    <desc>Created with Sketch.</desc>
    <g id="Symbols" stroke="none" stroke-width="1" fill="none" fill-rule="evenodd">
        <g id="mobile-Nav-Open" transform="translate(-170.000000, -82.000000)" fill="#FFFFFF" fill-rule="nonzero">
            <g id="Group-2" transform="translate(130.000000, 79.000000)">
                <g id="noun_Paw_1959439" transform="translate(50.471593, 12.000000) scale(-1, 1) rotate(-345.000000) translate(-50.471593, -12.000000) translate(39.971593, 3.000000)">
                    <g id="Group" transform="translate(0.844601, 0.963976)">
                        <path d="M3.005,5.83805609 C1.825,4.29804728 0.15,6.83394509 1.3525,8.40140948 C2.5325,9.94141829 4.2075,7.40302452 3.005,5.83805609 Z" id="Path"></path>
                        <path d="M7.8725,1.63485538 C6.74,0.109822346 4.935,1.31287623 4.935,3.46938776 C4.935,5.62839524 6.74,6.82895316 7.8725,5.30392013 C8.615,4.30553516 8.615,2.63324035 7.8725,1.63485538 Z" id="Path"></path>
                        <path d="M6.6825,0 C9.07,0 10.2575,3.68154456 8.635,5.86800763 C6.9725,8.10938188 3.9825,6.6143004 3.9825,3.46938776 C3.9825,1.7796212 5.015,0 6.6825,0 Z" id="Path"></path>
                        <path d="M18.645,5.98032594 C17.465,4.4428131 15.79,6.97871091 16.9925,8.54367934 C18.1725,10.0836882 19.8475,7.54779034 18.645,5.98032594 Z" id="Path"></path>
                        <path d="M17.82,4.56761122 C19.745,4.56761122 20.705,7.42049626 19.4,9.12024666 C18.0575,10.8699163 15.64,9.70679783 15.64,7.26325062 C15.64,5.92291881 16.495,4.56761122 17.82,4.56761122 Z" id="Path"></path>
                        <path d="M14.0075,1.63485538 C12.8775,0.109822346 11.0725,1.31287623 11.0725,3.46938776 C11.0725,5.62839524 12.8775,6.82895316 14.0075,5.30392013 C14.75,4.30553516 14.75,2.63324035 14.0075,1.63485538 Z" id="Path"></path>
                        <path d="M12.8175,0 C15.205,0 16.395,3.68154456 14.77,5.86800763 C13.1075,8.10938188 10.12,6.6143004 10.12,3.46938776 C10.12,1.7796212 11.1525,0 12.8175,0 Z" id="Path"></path>
                        <path d="M7.8075,15.5024226 C11.185,13.9998532 11.81,15.7994421 14.1475,16.0440464 C16.0575,16.2437234 16.8475,13.5805315 15.795,11.5163706 C15.0125,9.98884158 13.21,8.70841286 10.05,8.81823521 L10.02,8.81823521 C6.86,8.70841286 5.0575,9.98884158 4.2775,11.5163706 C3.28,13.4707091 3.895,16.203788 5.94,16.0415504 C6.7025,15.9941271 7.2625,15.7445309 7.8075,15.5024226 Z" id="Path"></path>
                        <path d="M10.035,15.8768169 C8.5325,15.8768169 7.8825,16.8602261 5.9875,16.9900162 C3.1125,17.1822053 2.1175,13.6554104 3.43,11.087065 C4.355,9.2700044 6.44,7.74996329 10.035,7.86976949 C13.63,7.74996329 15.715,9.2700044 16.6425,11.087065 C17.97,13.6853619 16.925,17.2046689 14.0725,16.9875202 C12.1325,16.8402584 11.745,15.8768169 10.035,15.8768169 Z" id="Path"></path>
                        <path d="M2.18,4.42534136 C4.1025,4.42534136 5.065,7.27573044 3.76,8.97548084 C2.4175,10.7276465 0,9.56452797 0,7.1184848 C0,5.77815299 0.855,4.42534136 2.18,4.42534136 Z" id="Path"></path>
                    </g>
                </g>
            </g>
        </g>
    </g>
</svg>